<?xml version="1.0" encoding="UTF-8"?>
<svg version="1.1" xmlns="http://www.w3.org/2000/svg" width="982" height="242">
<path d="M0 0 C1.75325026 0.00691345 1.75325026 0.00691345 3.54191971 0.01396656 C4.5209735 0.00755837 4.5209735 0.00755837 5.51980615 0.00102073 C7.70538772 -0.00721087 9.88904699 0.02027368 12.07445145 0.04761219 C13.64152354 0.04902265 15.20859893 0.04823073 16.7756691 0.04539967 C21.02971792 0.04396399 25.28306305 0.07337776 29.5369482 0.10826945 C33.98253889 0.13950798 38.42814538 0.14246171 42.87382889 0.14839649 C51.29222684 0.16394233 59.71030046 0.20498073 68.12855554 0.25514394 C77.7124588 0.31101444 87.29637749 0.33851812 96.88040304 0.36362112 C116.59533203 0.41589599 136.30996897 0.50385261 156.02464676 0.61523914 C154.64024919 3.50870445 153.44536779 5.38539075 151.00389481 7.48071766 C150.38811066 8.02582493 149.77232651 8.5709322 149.13788223 9.13255787 C148.12856895 10.02310619 148.12856895 10.02310619 147.09886551 10.93164539 C141.29004091 16.18182236 136.18894239 21.68136477 131.30476761 27.80045033 C102.47583709 63.84617603 102.47583709 63.84617603 81.83084488 66.16969776 C65.52113371 67.53200563 49.18559206 65.73435647 33.02464676 63.61523914 C32.69464676 53.71523914 32.36464676 43.81523914 32.02464676 33.61523914 C26.32660279 40.35658694 20.82158108 47.12552961 15.56761551 54.22070789 C12.4716154 58.38099736 9.27665919 62.46399218 6.08714676 66.55273914 C2.05071431 71.72850449 -1.9794715 76.90808518 -5.97535324 82.11523914 C-10.5487545 88.07269605 -15.15968907 94.00044738 -19.77491379 99.92554188 C-24.27004311 105.69951663 -28.73525908 111.49563813 -33.18238449 117.30664539 C-34.97535324 119.61523914 -34.97535324 119.61523914 -35.97535324 120.61523914 C-19.14535324 120.94523914 -2.31535324 121.27523914 15.02464676 121.61523914 C15.35464676 136.13523914 15.68464676 150.65523914 16.02464676 165.61523914 C23.80994586 155.43971663 31.58623025 145.26917751 39.14964676 134.92773914 C44.23622836 127.97675026 49.46461908 121.15491829 54.77952957 114.37744617 C59.50920051 108.32636578 64.07479794 102.16611157 68.60765457 95.96680164 C73.93365759 88.69781045 79.38934169 81.53111147 84.87181473 74.37964344 C85.51521805 73.53957752 86.15862137 72.6995116 86.82152176 71.83398914 C87.67762039 70.71927235 87.67762039 70.71927235 88.55101395 69.58203602 C89.76243446 67.96520307 90.90397547 66.29624608 92.02464676 64.61523914 C94.80873489 64.25447559 94.80873489 64.25447559 98.40208817 64.27466297 C99.05586945 64.27422489 99.70965073 64.27378681 100.38324356 64.27333546 C102.54786751 64.27542834 104.71172035 64.29878134 106.87620926 64.32227039 C108.37550305 64.32786461 109.87480232 64.33213553 111.37410355 64.33513355 C115.32309953 64.34659617 119.27176528 64.37607514 123.22063065 64.40924549 C127.24900723 64.4399161 131.27743711 64.45363242 135.30589676 64.46875477 C143.21229843 64.50094382 151.11843153 64.55215688 159.02464676 64.61523914 C157.37553846 68.06320915 155.41882912 70.7357862 152.96214676 73.67773914 C151.7439827 75.1453368 151.7439827 75.1453368 150.50120926 76.64258289 C149.27531082 78.11404774 149.27531082 78.11404774 148.02464676 79.61523914 C146.6269714 81.32206575 145.23112754 83.03039381 143.83714676 84.74023914 C138.19318909 91.63840963 132.52322498 98.5151519 126.85521317 105.39355946 C124.49058815 108.2634031 122.12668419 111.13384002 119.76292801 114.0043993 C118.6029087 115.41304073 117.44275216 116.82156916 116.28245926 118.22998524 C113.32532415 121.81972895 110.37033804 125.41120611 107.41917801 129.00586414 C102.03737576 135.55740104 96.64355858 142.09474682 91.14964676 148.55273914 C87.4660395 152.883307 83.87014288 157.27111043 80.34105301 161.72852039 C76.53800042 166.46790633 72.65252277 171.13981118 68.77147293 175.81543446 C68.18728592 176.52151844 67.60309891 177.22760242 67.00120926 177.95508289 C66.47607742 178.58793201 65.95094559 179.22078114 65.40990067 179.8728075 C64.20122384 181.39313294 63.10200665 182.9991993 62.02464676 184.61523914 C59.48279762 184.98438263 59.48279762 184.98438263 56.20344925 184.97600269 C54.96381927 184.98012669 53.7241893 184.98425068 52.44699478 184.98849964 C51.06581282 184.97788151 49.68463303 184.96697707 48.30345535 184.95581532 C46.85490308 184.95496947 45.40634952 184.95544336 43.957798 184.95714283 C40.01784751 184.95800587 36.07816934 184.9403305 32.1382823 184.91942096 C28.02364566 184.90070535 23.90900323 184.89890777 19.7943306 184.89534473 C11.99928239 184.88600918 4.20435995 184.86137506 -3.5906328 184.83129627 C-12.46352769 184.79779915 -21.3364285 184.78127807 -30.20937085 184.76620996 C-48.4647697 184.73482675 -66.72005137 184.68203701 -84.97535324 184.61523914 C-83.87377821 182.86667065 -82.76989258 181.11955768 -81.66505051 179.37305164 C-80.74333809 177.91343006 -80.74333809 177.91343006 -79.80300522 176.42432117 C-77.35767699 172.66587719 -74.68210423 169.13786018 -71.91285324 165.61523914 C-70.77862639 164.15149025 -69.64586849 162.68660218 -68.51441574 161.22070789 C-67.93465988 160.46966785 -67.35490402 159.71862782 -66.7575798 158.94482899 C-63.7199949 154.97433102 -60.75132333 150.95370872 -57.78785324 146.92773914 C-57.25474533 146.20521961 -56.72163742 145.48270008 -56.17237473 144.73828602 C-51.03392851 137.74720273 -46.01978318 130.67744106 -40.97535324 123.61523914 C-65.72535324 123.12023914 -65.72535324 123.12023914 -90.97535324 122.61523914 C-89.4760269 118.86692329 -88.51037095 116.7044239 -86.20972824 113.63867664 C-85.38009567 112.523839 -85.38009567 112.523839 -84.53370285 111.38647938 C-83.63856979 110.20034046 -83.63856979 110.20034046 -82.72535324 108.99023914 C-81.45049903 107.2806892 -80.17576272 105.57105133 -78.90113449 103.86133289 C-77.92201096 102.55398182 -77.92201096 102.55398182 -76.92310715 101.22021961 C-73.90089621 97.1782303 -70.90598235 93.11628669 -67.91285324 89.05273914 C-67.33374191 88.26753895 -66.75463058 87.48233875 -66.15797043 86.67334461 C-62.23196345 81.34331336 -58.34370093 75.98722638 -54.47535324 70.61523914 C-47.13511103 60.42182049 -39.67080966 50.32122623 -32.20484543 40.21973133 C-30.44007747 37.83130159 -28.67614428 35.44225943 -26.91285324 33.05273914 C-26.34010666 32.27664295 -25.76736008 31.50054676 -25.17725754 30.7009325 C-20.48402362 24.32998175 -15.84525107 17.92058905 -11.23682785 11.48804188 C-10.7354631 10.7900951 -10.23409836 10.09214832 -9.71754074 9.37305164 C-9.28296555 8.76606434 -8.84839035 8.15907703 -8.40064621 7.53369617 C-7.93029953 6.90060535 -7.45995285 6.26751453 -6.97535324 5.61523914 C-6.42037533 4.76307221 -5.86539742 3.91090528 -5.29360199 3.03291512 C-2.97535324 0.61523914 -2.97535324 0.61523914 0 0 Z " fill="#FFFFFF" transform="translate(90.9753532409668,32.38476085662842)"/>
<path d="M0 0 C3.68745115 2.77636138 6.54239048 6.11206117 9.33984375 9.76171875 C10.10554687 8.89160156 10.10554687 8.89160156 10.88671875 8.00390625 C19.49942913 -1.25017618 30.13644821 -7.00410665 42.92578125 -7.5390625 C44.52202182 -7.55850273 46.11852449 -7.56203766 47.71484375 -7.55078125 C48.97155884 -7.54232178 48.97155884 -7.54232178 50.25366211 -7.53369141 C61.43876431 -7.31409857 71.06492156 -4.04140478 79.41796875 3.68359375 C86.40174795 11.25424515 87.78744245 17.6966742 87.68041992 27.74584961 C87.680858 28.82951813 87.68129608 29.91318665 87.68174744 31.0296936 C87.67966495 34.59550271 87.65635865 38.16083598 87.6328125 41.7265625 C87.62721465 44.20520267 87.62294544 46.68384617 87.61994934 49.16249084 C87.60851558 55.67433903 87.57906071 62.18598529 87.5458374 68.69775391 C87.50778225 76.51717675 87.49596838 84.33670738 87.47847748 92.15619659 C87.44942285 104.02484426 87.3919247 115.89304918 87.33984375 127.76171875 C70.83984375 127.76171875 54.33984375 127.76171875 37.33984375 127.76171875 C37.28376953 118.21169922 37.28376953 118.21169922 37.2265625 108.46875 C37.19628677 104.43551978 37.1651415 100.40233391 37.13085938 96.36914062 C37.07652748 89.96738916 37.02541774 83.56572542 36.9934082 77.16381836 C36.96740016 72.0024879 36.92701522 66.84145189 36.87665749 61.68030357 C36.8599719 59.71117502 36.84846817 57.74199553 36.84222984 55.77280617 C36.83260724 53.01464593 36.8045699 50.25724187 36.7722168 47.49926758 C36.77365189 46.68502823 36.77508698 45.87078888 36.77656555 45.03187561 C36.70056428 40.45092161 36.21736733 37.39271524 33.33984375 33.76171875 C30.86554585 32.5245698 29.62485042 32.80590513 26.90234375 33.13671875 C26.11988281 33.22695312 25.33742188 33.3171875 24.53125 33.41015625 C22.17037389 33.72823003 22.17037389 33.72823003 19.33984375 34.76171875 C16.39472172 40.30940886 15.89572865 46.33240263 15.9074707 52.49438477 C15.89727905 53.31499893 15.8870874 54.1356131 15.87658691 54.98109436 C15.84669799 57.65934286 15.83722829 60.33723234 15.828125 63.015625 C15.81126039 64.88607448 15.79310777 66.75651276 15.77372742 68.62693787 C15.72641479 73.52422583 15.69648456 78.42146833 15.67028809 83.31890869 C15.63512059 89.2087463 15.57816156 95.09840939 15.52489471 100.98810577 C15.44660073 109.91262066 15.39582892 118.83691053 15.33984375 127.76171875 C-1.82015625 127.76171875 -18.98015625 127.76171875 -36.66015625 127.76171875 C-36.69753906 121.32285156 -36.73492188 114.88398438 -36.7734375 108.25 C-36.80371299 104.17119716 -36.83485811 100.09243819 -36.86914062 96.01367188 C-36.92347388 89.53949177 -36.97458358 83.06539844 -37.0065918 76.59106445 C-37.03259859 71.37138105 -37.07298267 66.15198886 -37.12334251 60.93248558 C-37.14002894 58.94102793 -37.15153214 56.94951988 -37.15777016 54.95800209 C-37.16739184 52.16871223 -37.19542814 49.3801704 -37.2277832 46.59106445 C-37.22634811 45.76747437 -37.22491302 44.94388428 -37.22343445 44.09533691 C-37.29900985 39.48933482 -37.73290896 36.53398957 -40.66015625 32.76171875 C-43.30958278 30.60292677 -45.44331908 30.66693148 -48.72265625 30.94921875 C-52.08955061 31.33049853 -53.47289576 32.18416302 -55.66015625 34.76171875 C-59.1518661 43.57903406 -58.01425337 54.57837148 -58.07421875 63.89453125 C-58.09295584 65.74112794 -58.11253109 67.58771629 -58.13290405 69.43429565 C-58.18396306 74.26415059 -58.22372822 79.0940332 -58.26104736 83.92401123 C-58.30833744 89.73542293 -58.36982161 95.54670012 -58.42889404 101.35800171 C-58.51678603 110.15918564 -58.58677931 118.96034798 -58.66015625 127.76171875 C-75.49015625 127.76171875 -92.32015625 127.76171875 -109.66015625 127.76171875 C-109.66015625 84.20171875 -109.66015625 40.64171875 -109.66015625 -4.23828125 C-93.82015625 -4.23828125 -77.98015625 -4.23828125 -61.66015625 -4.23828125 C-61.16515625 1.70171875 -61.16515625 1.70171875 -60.66015625 7.76171875 C-60.10585938 7.01148437 -59.5515625 6.26125 -58.98046875 5.48828125 C-44.49840154 -11.52936675 -17.69637953 -11.09867721 0 0 Z " fill="#FFFFFF" transform="translate(894.66015625,84.23828125)"/>
<path d="M0 0 C1.43840996 1.22491683 2.85445117 2.47646637 4.25 3.75 C5.07113281 4.46800781 5.89226562 5.18601562 6.73828125 5.92578125 C19.70979144 17.95247734 26.52825772 33.98137806 27.453125 51.625 C27.8516414 72.25071442 22.59122614 90.50040445 8.25 105.75 C7.60933594 106.44351563 6.96867188 107.13703125 6.30859375 107.8515625 C-2.68357609 116.69016588 -15.46711114 122.36056342 -27.75 124.75 C-29.03003906 125.02263672 -29.03003906 125.02263672 -30.3359375 125.30078125 C-43.89569142 127.0849594 -58.65018713 126.82707302 -71.75 122.75 C-72.60980469 122.49476563 -73.46960938 122.23953125 -74.35546875 121.9765625 C-91.2083955 116.13564353 -104.0030098 102.42990817 -111.75 86.75 C-119.71254502 69.20244782 -119.48256427 49.55443183 -113.68359375 31.4140625 C-110.98071269 24.47399165 -107.30435696 18.61732473 -102.75 12.75 C-102.30140625 12.13640625 -101.8528125 11.5228125 -101.390625 10.890625 C-91.39927407 -1.92181325 -74.89087723 -9.92423989 -58.97363281 -12.0390625 C-38.65201873 -13.96680455 -16.95926922 -12.63748708 0 0 Z M-56 27.5625 C-61.15438332 36.95084104 -60.93179301 46.55620872 -60.9375 57 C-60.94974609 58.16402344 -60.96199219 59.32804687 -60.97460938 60.52734375 C-60.99285312 71.38845097 -60.89334953 81.38724513 -53 89.5625 C-48.18703952 92.10267358 -44.11775653 92.09193913 -39 90.8125 C-33.96672652 87.61830722 -32.47108667 83.8942594 -31.15869141 78.17163086 C-29.78854094 70.327418 -29.41579034 62.70442098 -29.4375 54.75 C-29.42138672 53.56921875 -29.40527344 52.3884375 -29.38867188 51.171875 C-29.38383215 42.3829425 -29.63505319 32.84861422 -35.125 25.625 C-42.52402532 20.33998192 -49.94773734 19.99717168 -56 27.5625 Z " fill="#FFFFFF" transform="translate(733.75,89.25)"/>
<path d="M0 0 C1.43840996 1.22491683 2.85445117 2.47646637 4.25 3.75 C5.07113281 4.46800781 5.89226562 5.18601562 6.73828125 5.92578125 C19.70979144 17.95247734 26.52825772 33.98137806 27.453125 51.625 C27.8516414 72.25071442 22.59122614 90.50040445 8.25 105.75 C7.60933594 106.44351563 6.96867188 107.13703125 6.30859375 107.8515625 C-2.68357609 116.69016588 -15.46711114 122.36056342 -27.75 124.75 C-29.03003906 125.02263672 -29.03003906 125.02263672 -30.3359375 125.30078125 C-43.89569142 127.0849594 -58.65018713 126.82707302 -71.75 122.75 C-72.60980469 122.49476563 -73.46960938 122.23953125 -74.35546875 121.9765625 C-91.2083955 116.13564353 -104.0030098 102.42990817 -111.75 86.75 C-119.71254502 69.20244782 -119.48256427 49.55443183 -113.68359375 31.4140625 C-110.98071269 24.47399165 -107.30435696 18.61732473 -102.75 12.75 C-102.30140625 12.13640625 -101.8528125 11.5228125 -101.390625 10.890625 C-91.39927407 -1.92181325 -74.89087723 -9.92423989 -58.97363281 -12.0390625 C-38.65201873 -13.96680455 -16.95926922 -12.63748708 0 0 Z M-56 27.5625 C-61.15438332 36.95084104 -60.93179301 46.55620872 -60.9375 57 C-60.94974609 58.16402344 -60.96199219 59.32804687 -60.97460938 60.52734375 C-60.99285312 71.38845097 -60.89334953 81.38724513 -53 89.5625 C-48.18703952 92.10267358 -44.11775653 92.09193913 -39 90.8125 C-33.96672652 87.61830722 -32.47108667 83.8942594 -31.15869141 78.17163086 C-29.78854094 70.327418 -29.41579034 62.70442098 -29.4375 54.75 C-29.42138672 53.56921875 -29.40527344 52.3884375 -29.38867188 51.171875 C-29.38383215 42.3829425 -29.63505319 32.84861422 -35.125 25.625 C-42.52402532 20.33998192 -49.94773734 19.99717168 -56 27.5625 Z " fill="#FFFFFF" transform="translate(570.75,89.25)"/>
<path d="M0 0 C18.48 0 36.96 0 56 0 C56 43.23 56 86.46 56 131 C78.44 131 100.88 131 124 131 C124 145.85 124 160.7 124 176 C83.08 176 42.16 176 0 176 C0 117.92 0 59.84 0 0 Z " fill="#FFFFFF" transform="translate(315,36)"/>
</svg>
